<?xml version="1.0" encoding="UTF-8"?>
<!DOCTYPE svg PUBLIC "-//W3C//DTD SVG 1.1//EN" "http://www.w3.org/Graphics/SVG/1.1/DTD/svg11.dtd">
<!-- Creator: CorelDRAW 2019 (64 Bit) -->
<svg xmlns="http://www.w3.org/2000/svg" xml:space="preserve" width="152.295mm" height="228.443mm" version="1.1" style="shape-rendering:geometricPrecision; text-rendering:geometricPrecision; image-rendering:optimizeQuality; fill-rule:evenodd; clip-rule:evenodd"
viewBox="0 0 2541.4 3812.1"
 xmlns:xlink="http://www.w3.org/1999/xlink">
 <defs>
  <style type="text/css">
   <![CDATA[
    .str0 {stroke:black;stroke-width:3.34;stroke-miterlimit:22.9256}
    .fil3 {fill:none}
    .fil5 {fill:black}
    .fil1 {fill:#176EB5}
    .fil2 {fill:#D0E9EC}
    .fil4 {fill:white}
    .fil0 {fill:white}
   ]]>
  </style>
 </defs>
 <g id="Camada_x0020_1">
  <metadata id="CorelCorpID_0Corel-Layer"/>
  <g id="_2019899553648">
   <rect class="fil0" x="0" y="-0" width="2541.4" height="3812.1"/>
   <g>
    <path class="fil1" d="M1276.3 2277.97c454.28,0 883.71,106.18 1265.1,294.79l0 1239.34 -2541.4 0 0 -1233.77c384.17,-192.1 817.56,-300.36 1276.3,-300.36z"/>
    <path class="fil2" d="M1265.1 2457.29c458.74,0 892.13,108.26 1276.3,300.36l0 1054.46 -2541.4 0 0 -1060.03c381.39,-188.62 810.81,-294.79 1265.1,-294.79z"/>
   </g>
   <rect class="fil3 str0" x="830.88" y="133.99" width="879.64" height="126.11" rx="89.86" ry="63.06"/>
   <g>
    <polygon class="fil1" points="1140.21,988.62 1127.58,1068.11 786.33,1068.11 786.33,866.5 850.8,866.5 892.65,652.22 847.27,652.22 847.27,445.54 1209.35,445.54 1270.7,543.85 1332.05,445.54 1694.13,445.54 1694.13,652.22 1648.76,652.22 1690.6,866.5 1755.07,866.5 1755.07,1068.11 1413.82,1068.11 1401.19,988.62 1348.8,1069.16 1192.6,1069.16 "/>
    <polygon class="fil4" points="1122.5,905.33 1101.49,1037.54 816.9,1037.54 816.9,897.07 875.98,897.07 929.76,621.65 877.84,621.65 877.84,476.11 1192.4,476.11 1270.7,601.59 1349.01,476.11 1663.56,476.11 1663.56,621.65 1611.64,621.65 1665.43,897.07 1724.5,897.07 1724.5,1037.54 1439.92,1037.54 1418.91,905.33 1332.22,1038.59 1209.19,1038.59 "/>
    <polygon class="fil1" points="1270.7,1019.4 1219.59,1019.4 1111.38,853.05 1085.11,1018.35 836.09,1018.35 836.09,916.26 891.78,916.26 953.06,602.46 897.03,602.46 897.03,495.3 1181.75,495.3 1270.7,637.83 1359.65,495.3 1644.38,495.3 1644.38,602.46 1588.34,602.46 1649.62,916.26 1705.31,916.26 1705.31,1018.35 1456.3,1018.35 1430.02,853.05 1321.81,1019.4 "/>
    <path class="fil4" d="M1497.26 756.75c-105.79,-114.38 -347.32,-114.38 -453.11,0 105.79,114.38 347.32,114.38 453.11,0z"/>
    <path class="fil5" d="M1207.9 792.7c-13.04,-22.19 -13.04,-49.7 0,-71.89 27.46,-46.74 98.14,-46.74 125.61,0 13.04,22.19 13.04,49.7 0,71.89 -27.46,46.74 -98.14,46.74 -125.61,0z"/>
   </g>
  </g>
 </g>
</svg>
